<?xml version="1.0" encoding="utf-8" ?>
<svg baseProfile="full" height="480" version="1.1" viewBox="0,0,480,480" width="480" xmlns="http://www.w3.org/2000/svg" xmlns:ev="http://www.w3.org/2001/xml-events" xmlns:xlink="http://www.w3.org/1999/xlink"><defs><style type="text/css"><![CDATA[.axis {
	stroke: black;
	stroke-width: 1px;
	marker-mid: url(#tickmark);
	marker-end: url(#arrowhead);
}

.depth0 { stroke-width: 0.9px; stroke: #808080; }
.depth1 { stroke-width: 0.8px; stroke: #A6A6A6; }
.depth2 { stroke-width: 0.7px; stroke: #BFBFBF; }
.depth3 { stroke-width: 0.6px; stroke: #E6E6E6; }

#arrowhead {
	stroke: black;
	fill: none;
}

#tickmark {
	stroke: black;
	stroke-width: 2px;
}

.graph {
	stroke: red;
}

/* :nth-of-type not supported by GNOME's image reader */
.graph:nth-of-type(2) {
	stroke: blue;
}

.graph:nth-of-type(3) {
	stroke: green;
}

.graph_segment {
	fill: none;
	stroke-width: 1.5px;
	marker-start: url(#continuity);
	marker-end: url(#discontinuity);
}

#discontinuity {
	fill: white;
	stroke: black;
}
]]></style><marker id="arrowhead" markerHeight="8" markerUnits="strokeWidth" markerWidth="4" orient="auto" refX="4" refY="4"><polyline points="0,8 4,4 0,0" /></marker><marker id="tickmark" markerHeight="10" markerUnits="strokeWidth" markerWidth="1" orient="auto" refX="0.5" refY="5"><line x1="0" x2="0" y1="0" y2="10" /></marker></defs><g id="canvas" transform="translate(40,40) scale(1,-1) translate(0,-400)"><line class="grid depth2" x1="22.22222222222222" x2="22.22222222222222" y1="0" y2="400" /><line class="grid depth2" x1="0" x2="400" y1="22.22222222222222" y2="22.22222222222222" /><line class="grid depth2" x1="44.44444444444444" x2="44.44444444444444" y1="0" y2="400" /><line class="grid depth2" x1="0" x2="400" y1="44.44444444444444" y2="44.44444444444444" /><line class="grid depth2" x1="88.88888888888889" x2="88.88888888888889" y1="0" y2="400" /><line class="grid depth2" x1="0" x2="400" y1="88.88888888888889" y2="88.88888888888889" /><line class="grid depth2" x1="111.11111111111111" x2="111.11111111111111" y1="0" y2="400" /><line class="grid depth2" x1="0" x2="400" y1="111.11111111111111" y2="111.11111111111111" /><line class="grid depth2" x1="155.55555555555557" x2="155.55555555555557" y1="0" y2="400" /><line class="grid depth2" x1="0" x2="400" y1="155.55555555555557" y2="155.55555555555557" /><line class="grid depth2" x1="177.77777777777777" x2="177.77777777777777" y1="0" y2="400" /><line class="grid depth2" x1="0" x2="400" y1="177.77777777777777" y2="177.77777777777777" /><line class="grid depth2" x1="222.22222222222223" x2="222.22222222222223" y1="0" y2="400" /><line class="grid depth2" x1="0" x2="400" y1="222.22222222222223" y2="222.22222222222223" /><line class="grid depth2" x1="244.44444444444446" x2="244.44444444444446" y1="0" y2="400" /><line class="grid depth2" x1="0" x2="400" y1="244.44444444444446" y2="244.44444444444446" /><line class="grid depth2" x1="288.88888888888886" x2="288.88888888888886" y1="0" y2="400" /><line class="grid depth2" x1="0" x2="400" y1="288.88888888888886" y2="288.88888888888886" /><line class="grid depth2" x1="311.11111111111114" x2="311.11111111111114" y1="0" y2="400" /><line class="grid depth2" x1="0" x2="400" y1="311.11111111111114" y2="311.11111111111114" /><line class="grid depth2" x1="355.55555555555554" x2="355.55555555555554" y1="0" y2="400" /><line class="grid depth2" x1="0" x2="400" y1="355.55555555555554" y2="355.55555555555554" /><line class="grid depth2" x1="377.77777777777777" x2="377.77777777777777" y1="0" y2="400" /><line class="grid depth2" x1="0" x2="400" y1="377.77777777777777" y2="377.77777777777777" /><line class="grid depth1" x1="66.66666666666666" x2="66.66666666666666" y1="0" y2="400" /><line class="grid depth1" x1="0" x2="400" y1="66.66666666666666" y2="66.66666666666666" /><line class="grid depth1" x1="133.33333333333331" x2="133.33333333333331" y1="0" y2="400" /><line class="grid depth1" x1="0" x2="400" y1="133.33333333333331" y2="133.33333333333331" /><line class="grid depth1" x1="266.66666666666663" x2="266.66666666666663" y1="0" y2="400" /><line class="grid depth1" x1="0" x2="400" y1="266.66666666666663" y2="266.66666666666663" /><line class="grid depth1" x1="333.33333333333337" x2="333.33333333333337" y1="0" y2="400" /><line class="grid depth1" x1="0" x2="400" y1="333.33333333333337" y2="333.33333333333337" /><line class="grid depth0" x1="200.0" x2="200.0" y1="0" y2="400" /><line class="grid depth0" x1="0" x2="400" y1="200.0" y2="200.0" /><line class="grid depth0" x1="400.0" x2="400.0" y1="0" y2="400" /><line class="grid depth0" x1="0" x2="400" y1="400.0" y2="400.0" /><polyline class="axis" points="0,0 400,0" /><polyline class="axis" points="0,0 0,400" /><line class="grid depth0" x1="0" x2="400" y1="0" y2="400" /><g class="graph" id="graph_0"><path class="graph_segment" d="M 0.0 0.0 L 66.66666666666666 66.66666666666666" /><path class="graph_segment" d="M 66.66666666666666 111.11111111111111 L 133.33333333333331 133.33333333333331" /><path class="graph_segment" d="M 133.33333333333331 200.0 L 200.0 400.0" /><path class="graph_segment" d="M 200.0 133.33333333333331 L 266.66666666666663 200.0" /><path class="graph_segment" d="M 266.66666666666663 88.88888888888889 L 333.33333333333337 111.11111111111111" /><path class="graph_segment" d="M 333.33333333333337 66.66666666666666 L 400.0 88.88888888888889" /></g></g></svg>