<?xml version="1.0" encoding="utf-8" ?>
<svg baseProfile="full" height="480" version="1.1" viewBox="0,0,480,480" width="480" xmlns="http://www.w3.org/2000/svg" xmlns:ev="http://www.w3.org/2001/xml-events" xmlns:xlink="http://www.w3.org/1999/xlink"><defs><style type="text/css"><![CDATA[.axis {
	stroke: black;
	stroke-width: 1px;
	marker-mid: url(#tickmark);
	marker-end: url(#arrowhead);
}

.depth0 { stroke-width: 0.9px; stroke: #808080; }
.depth1 { stroke-width: 0.8px; stroke: #A6A6A6; }
.depth2 { stroke-width: 0.7px; stroke: #BFBFBF; }
.depth3 { stroke-width: 0.6px; stroke: #E6E6E6; }

#arrowhead {
	stroke: black;
	fill: none;
}

#tickmark {
	stroke: black;
	stroke-width: 2px;
}

.graph {
	fill: none;
	stroke: black;
	stroke-width: 1.5px;
	marker-start: url(#continuity);
	marker-end: url(#discontinuity);
}

#discontinuity {
	fill: white;
	stroke: black;
}
]]></style><marker id="arrowhead" markerHeight="8" markerUnits="strokeWidth" markerWidth="4" orient="auto" refX="4" refY="4"><polyline points="0,8 4,4 0,0" /></marker><marker id="tickmark" markerHeight="10" markerUnits="strokeWidth" markerWidth="1" orient="auto" refX="0.5" refY="5"><line x1="0" x2="0" y1="0" y2="10" /></marker></defs><g id="canvas" transform="translate(40,40) scale(1,-1) translate(0,-400)"><line class="grid depth1" x1="20.0" x2="20.0" y1="0" y2="400" /><line class="grid depth1" x1="0" x2="400" y1="20.0" y2="20.0" /><line class="grid depth1" x1="40.0" x2="40.0" y1="0" y2="400" /><line class="grid depth1" x1="0" x2="400" y1="40.0" y2="40.0" /><line class="grid depth1" x1="60.0" x2="60.0" y1="0" y2="400" /><line class="grid depth1" x1="0" x2="400" y1="60.0" y2="60.0" /><line class="grid depth1" x1="100.0" x2="100.0" y1="0" y2="400" /><line class="grid depth1" x1="0" x2="400" y1="100.0" y2="100.0" /><line class="grid depth1" x1="120.0" x2="120.0" y1="0" y2="400" /><line class="grid depth1" x1="0" x2="400" y1="120.0" y2="120.0" /><line class="grid depth1" x1="140.0" x2="140.0" y1="0" y2="400" /><line class="grid depth1" x1="0" x2="400" y1="140.0" y2="140.0" /><line class="grid depth1" x1="180.0" x2="180.0" y1="0" y2="400" /><line class="grid depth1" x1="0" x2="400" y1="180.0" y2="180.0" /><line class="grid depth1" x1="200.0" x2="200.0" y1="0" y2="400" /><line class="grid depth1" x1="0" x2="400" y1="200.0" y2="200.0" /><line class="grid depth1" x1="220.00000000000003" x2="220.00000000000003" y1="0" y2="400" /><line class="grid depth1" x1="0" x2="400" y1="220.00000000000003" y2="220.00000000000003" /><line class="grid depth1" x1="260.0" x2="260.0" y1="0" y2="400" /><line class="grid depth1" x1="0" x2="400" y1="260.0" y2="260.0" /><line class="grid depth1" x1="280.0" x2="280.0" y1="0" y2="400" /><line class="grid depth1" x1="0" x2="400" y1="280.0" y2="280.0" /><line class="grid depth1" x1="300.0" x2="300.0" y1="0" y2="400" /><line class="grid depth1" x1="0" x2="400" y1="300.0" y2="300.0" /><line class="grid depth1" x1="340.0" x2="340.0" y1="0" y2="400" /><line class="grid depth1" x1="0" x2="400" y1="340.0" y2="340.0" /><line class="grid depth1" x1="360.0" x2="360.0" y1="0" y2="400" /><line class="grid depth1" x1="0" x2="400" y1="360.0" y2="360.0" /><line class="grid depth1" x1="380.0" x2="380.0" y1="0" y2="400" /><line class="grid depth1" x1="0" x2="400" y1="380.0" y2="380.0" /><line class="grid depth0" x1="80.0" x2="80.0" y1="0" y2="400" /><line class="grid depth0" x1="0" x2="400" y1="80.0" y2="80.0" /><line class="grid depth0" x1="160.0" x2="160.0" y1="0" y2="400" /><line class="grid depth0" x1="0" x2="400" y1="160.0" y2="160.0" /><line class="grid depth0" x1="240.0" x2="240.0" y1="0" y2="400" /><line class="grid depth0" x1="0" x2="400" y1="240.0" y2="240.0" /><line class="grid depth0" x1="320.0" x2="320.0" y1="0" y2="400" /><line class="grid depth0" x1="0" x2="400" y1="320.0" y2="320.0" /><line class="grid depth0" x1="400.0" x2="400.0" y1="0" y2="400" /><line class="grid depth0" x1="0" x2="400" y1="400.0" y2="400.0" /><polyline class="axis" points="0,0 80.0,0 100.0,0 100.3125,0 100.62500000000001,0 100.93749999999999,0 101.25,0 102.49999999999999,0 103.75000000000001,0 105.0,0 110.00000000000001,0 114.99999999999999,0 120.0,0 125.0,0 130.0,0 135.0,0 140.0,0 160.0,0 240.0,0 260.0,0 280.0,0 300.0,0 305.0,0 310.0,0 315.0,0 320.0,0 400.0,0" /><polyline class="axis" points="0,0 0,80.0 0,100.0 0,105.0 0,110.00000000000001 0,114.99999999999999 0,120.0 0,125.0 0,130.0 0,135.0 0,140.0 0,160.0 0,180.0 0,200.0 0,201.25000000000003 0,202.5 0,203.75 0,204.99999999999997 0,210.0 0,215.0 0,220.00000000000003 0,240.0 0,260.0 0,280.0 0,300.0 0,320.0 0,400.0" /><line class="grid depth0" x1="0" x2="400" y1="0" y2="400" /><path class="graph" d="M 0.0 105.0 L 80.0 110.00000000000001" /><path class="graph" d="M 80.0 260.0 L 100.0 280.0 L 100.3125 300.0" /><path class="graph" d="M 100.3125 130.0 L 100.62500000000001 135.0" /><path class="graph" d="M 100.62500000000001 125.0 L 100.93749999999999 130.0" /><path class="graph" d="M 100.93749999999999 140.0 L 101.25 160.0" /><path class="graph" d="M 101.25 80.0 L 102.49999999999999 100.0" /><path class="graph" d="M 102.49999999999999 240.0 L 103.75000000000001 260.0" /><path class="graph" d="M 103.75000000000001 120.0 L 105.0 125.0" /><path class="graph" d="M 105.0 0.0 L 110.00000000000001 80.0" /><path class="graph" d="M 110.00000000000001 320.0 L 114.99999999999999 400.0" /><path class="graph" d="M 114.99999999999999 300.0 L 120.0 320.0" /><path class="graph" d="M 120.0 114.99999999999999 L 125.0 120.0" /><path class="graph" d="M 125.0 202.5 L 130.0 203.75" /><path class="graph" d="M 130.0 201.25000000000003 L 135.0 202.5" /><path class="graph" d="M 135.0 220.00000000000003 L 140.0 240.0" /><path class="graph" d="M 140.0 203.75 L 160.0 204.99999999999997" /><path class="graph" d="M 160.0 100.0 L 240.0 105.0" /><path class="graph" d="M 240.0 110.00000000000001 L 260.0 114.99999999999999" /><path class="graph" d="M 260.0 210.0 L 280.0 215.0" /><path class="graph" d="M 280.0 200.0 L 300.0 201.25000000000003" /><path class="graph" d="M 300.0 215.0 L 305.0 220.00000000000003" /><path class="graph" d="M 305.0 160.0 L 310.0 180.0" /><path class="graph" d="M 310.0 204.99999999999997 L 315.0 210.0" /><path class="graph" d="M 315.0 180.0 L 320.0 200.0" /><path class="graph" d="M 320.0 135.0 L 400.0 140.0" /></g></svg>