<?xml version="1.0" encoding="utf-8" ?>
<svg baseProfile="full" height="480" version="1.1" viewBox="0,0,480,480" width="480" xmlns="http://www.w3.org/2000/svg" xmlns:ev="http://www.w3.org/2001/xml-events" xmlns:xlink="http://www.w3.org/1999/xlink"><defs><style type="text/css"><![CDATA[.axis {
	stroke: black;
	stroke-width: 1px;
	marker-mid: url(#tickmark);
	marker-end: url(#arrowhead);
}

.depth0 { stroke-width: 0.9px; stroke: #808080; }
.depth1 { stroke-width: 0.8px; stroke: #A6A6A6; }
.depth2 { stroke-width: 0.7px; stroke: #BFBFBF; }
.depth3 { stroke-width: 0.6px; stroke: #E6E6E6; }

#arrowhead {
	stroke: black;
	fill: none;
}

#tickmark {
	stroke: black;
	stroke-width: 2px;
}

.graph {
	stroke: red;
}

/* :nth-of-type not supported by GNOME's image reader */
.graph:nth-of-type(2) {
	stroke: blue;
}

.graph:nth-of-type(3) {
	stroke: green;
}

.graph_segment {
	fill: none;
	stroke-width: 1.5px;
	marker-start: url(#continuity);
	marker-end: url(#discontinuity);
}

#discontinuity {
	fill: white;
	stroke: black;
}
]]></style><marker id="arrowhead" markerHeight="8" markerUnits="strokeWidth" markerWidth="4" orient="auto" refX="4" refY="4"><polyline points="0,8 4,4 0,0" /></marker><marker id="tickmark" markerHeight="10" markerUnits="strokeWidth" markerWidth="1" orient="auto" refX="0.5" refY="5"><line x1="0" x2="0" y1="0" y2="10" /></marker></defs><g id="canvas" transform="translate(40,40) scale(1,-1) translate(0,-400)"><line class="grid depth1" x1="20.0" x2="20.0" y1="0" y2="400" /><line class="grid depth1" x1="0" x2="400" y1="20.0" y2="20.0" /><line class="grid depth1" x1="40.0" x2="40.0" y1="0" y2="400" /><line class="grid depth1" x1="0" x2="400" y1="40.0" y2="40.0" /><line class="grid depth1" x1="60.0" x2="60.0" y1="0" y2="400" /><line class="grid depth1" x1="0" x2="400" y1="60.0" y2="60.0" /><line class="grid depth1" x1="100.0" x2="100.0" y1="0" y2="400" /><line class="grid depth1" x1="0" x2="400" y1="100.0" y2="100.0" /><line class="grid depth1" x1="120.0" x2="120.0" y1="0" y2="400" /><line class="grid depth1" x1="0" x2="400" y1="120.0" y2="120.0" /><line class="grid depth1" x1="140.0" x2="140.0" y1="0" y2="400" /><line class="grid depth1" x1="0" x2="400" y1="140.0" y2="140.0" /><line class="grid depth1" x1="180.0" x2="180.0" y1="0" y2="400" /><line class="grid depth1" x1="0" x2="400" y1="180.0" y2="180.0" /><line class="grid depth1" x1="200.0" x2="200.0" y1="0" y2="400" /><line class="grid depth1" x1="0" x2="400" y1="200.0" y2="200.0" /><line class="grid depth1" x1="220.00000000000003" x2="220.00000000000003" y1="0" y2="400" /><line class="grid depth1" x1="0" x2="400" y1="220.00000000000003" y2="220.00000000000003" /><line class="grid depth1" x1="260.0" x2="260.0" y1="0" y2="400" /><line class="grid depth1" x1="0" x2="400" y1="260.0" y2="260.0" /><line class="grid depth1" x1="280.0" x2="280.0" y1="0" y2="400" /><line class="grid depth1" x1="0" x2="400" y1="280.0" y2="280.0" /><line class="grid depth1" x1="300.0" x2="300.0" y1="0" y2="400" /><line class="grid depth1" x1="0" x2="400" y1="300.0" y2="300.0" /><line class="grid depth1" x1="340.0" x2="340.0" y1="0" y2="400" /><line class="grid depth1" x1="0" x2="400" y1="340.0" y2="340.0" /><line class="grid depth1" x1="360.0" x2="360.0" y1="0" y2="400" /><line class="grid depth1" x1="0" x2="400" y1="360.0" y2="360.0" /><line class="grid depth1" x1="380.0" x2="380.0" y1="0" y2="400" /><line class="grid depth1" x1="0" x2="400" y1="380.0" y2="380.0" /><line class="grid depth0" x1="80.0" x2="80.0" y1="0" y2="400" /><line class="grid depth0" x1="0" x2="400" y1="80.0" y2="80.0" /><line class="grid depth0" x1="160.0" x2="160.0" y1="0" y2="400" /><line class="grid depth0" x1="0" x2="400" y1="160.0" y2="160.0" /><line class="grid depth0" x1="240.0" x2="240.0" y1="0" y2="400" /><line class="grid depth0" x1="0" x2="400" y1="240.0" y2="240.0" /><line class="grid depth0" x1="320.0" x2="320.0" y1="0" y2="400" /><line class="grid depth0" x1="0" x2="400" y1="320.0" y2="320.0" /><line class="grid depth0" x1="400.0" x2="400.0" y1="0" y2="400" /><line class="grid depth0" x1="0" x2="400" y1="400.0" y2="400.0" /><polyline class="axis" points="0,0 400,0" /><polyline class="axis" points="0,0 0,400" /><line class="grid depth0" x1="0" x2="400" y1="0" y2="400" /><g class="graph" id="graph_0"><path class="graph_segment" d="M 0.0 338.75 L 80.0 340.0" /><path class="graph_segment" d="M 80.0 240.0 L 100.0 320.0" /><path class="graph_segment" d="M 100.0 380.0 L 120.0 400.0" /><path class="graph_segment" d="M 120.0 340.0 L 140.0 360.0 L 145.0 365.0" /><path class="graph_segment" d="M 145.0 335.9375 L 150.0 336.25" /><path class="graph_segment" d="M 150.0 370.0 L 155.0 375.0" /><path class="graph_segment" d="M 155.0 160.0 L 156.25 240.0" /><path class="graph_segment" d="M 156.25 335.625 L 157.5 335.9375" /><path class="graph_segment" d="M 157.5 325.0 L 158.75 330.0" /><path class="graph_segment" d="M 158.75 320.0 L 160.0 325.0" /><path class="graph_segment" d="M 160.0 0.0 L 180.0 80.0" /><path class="graph_segment" d="M 180.0 337.5 L 200.0 338.75" /><path class="graph_segment" d="M 200.0 365.0 L 204.99999999999997 370.0" /><path class="graph_segment" d="M 204.99999999999997 330.0 L 210.0 335.0" /><path class="graph_segment" d="M 210.0 335.3125 L 215.0 335.625" /><path class="graph_segment" d="M 215.0 335.0 L 220.00000000000003 335.3125" /><path class="graph_segment" d="M 220.00000000000003 336.25 L 240.0 337.5" /><path class="graph_segment" d="M 240.0 375.0 L 320.0 380.0" /><path class="graph_segment" d="M 320.0 80.0 L 400.0 160.0" /></g></g></svg>