<?xml version="1.0" encoding="utf-8" ?>
<svg baseProfile="full" height="480" version="1.1" viewBox="0,0,480,480" width="480" xmlns="http://www.w3.org/2000/svg" xmlns:ev="http://www.w3.org/2001/xml-events" xmlns:xlink="http://www.w3.org/1999/xlink"><defs><style type="text/css"><![CDATA[.axis {
	stroke: black;
	stroke-width: 1px;
	marker-mid: url(#tickmark);
	marker-end: url(#arrowhead);
}

.depth0 { stroke-width: 0.9px; stroke: #808080; }
.depth1 { stroke-width: 0.8px; stroke: #A6A6A6; }
.depth2 { stroke-width: 0.7px; stroke: #BFBFBF; }
.depth3 { stroke-width: 0.6px; stroke: #E6E6E6; }

#arrowhead {
	stroke: black;
	fill: none;
}

#tickmark {
	stroke: black;
	stroke-width: 2px;
}

.graph {
	stroke: red;
}

/* :nth-of-type not supported by GNOME's image reader */
.graph:nth-of-type(2) {
	stroke: blue;
}

.graph:nth-of-type(3) {
	stroke: green;
}

.graph_segment {
	fill: none;
	stroke-width: 1.5px;
	marker-start: url(#continuity);
	marker-end: url(#discontinuity);
}

#discontinuity {
	fill: white;
	stroke: black;
}
]]></style><marker id="arrowhead" markerHeight="8" markerUnits="strokeWidth" markerWidth="4" orient="auto" refX="4" refY="4"><polyline points="0,8 4,4 0,0" /></marker><marker id="tickmark" markerHeight="10" markerUnits="strokeWidth" markerWidth="1" orient="auto" refX="0.5" refY="5"><line x1="0" x2="0" y1="0" y2="10" /></marker></defs><g id="canvas" transform="translate(40,40) scale(1,-1) translate(0,-400)"><line class="grid depth2" x1="33.33333333333333" x2="33.33333333333333" y1="0" y2="400" /><line class="grid depth2" x1="0" x2="400" y1="33.33333333333333" y2="33.33333333333333" /><line class="grid depth2" x1="100.0" x2="100.0" y1="0" y2="400" /><line class="grid depth2" x1="0" x2="400" y1="100.0" y2="100.0" /><line class="grid depth2" x1="166.66666666666669" x2="166.66666666666669" y1="0" y2="400" /><line class="grid depth2" x1="0" x2="400" y1="166.66666666666669" y2="166.66666666666669" /><line class="grid depth2" x1="233.33333333333334" x2="233.33333333333334" y1="0" y2="400" /><line class="grid depth2" x1="0" x2="400" y1="233.33333333333334" y2="233.33333333333334" /><line class="grid depth2" x1="300.0" x2="300.0" y1="0" y2="400" /><line class="grid depth2" x1="0" x2="400" y1="300.0" y2="300.0" /><line class="grid depth2" x1="366.66666666666663" x2="366.66666666666663" y1="0" y2="400" /><line class="grid depth2" x1="0" x2="400" y1="366.66666666666663" y2="366.66666666666663" /><line class="grid depth1" x1="66.66666666666666" x2="66.66666666666666" y1="0" y2="400" /><line class="grid depth1" x1="0" x2="400" y1="66.66666666666666" y2="66.66666666666666" /><line class="grid depth1" x1="200.0" x2="200.0" y1="0" y2="400" /><line class="grid depth1" x1="0" x2="400" y1="200.0" y2="200.0" /><line class="grid depth1" x1="333.33333333333337" x2="333.33333333333337" y1="0" y2="400" /><line class="grid depth1" x1="0" x2="400" y1="333.33333333333337" y2="333.33333333333337" /><line class="grid depth0" x1="133.33333333333331" x2="133.33333333333331" y1="0" y2="400" /><line class="grid depth0" x1="0" x2="400" y1="133.33333333333331" y2="133.33333333333331" /><line class="grid depth0" x1="266.66666666666663" x2="266.66666666666663" y1="0" y2="400" /><line class="grid depth0" x1="0" x2="400" y1="266.66666666666663" y2="266.66666666666663" /><line class="grid depth0" x1="400.0" x2="400.0" y1="0" y2="400" /><line class="grid depth0" x1="0" x2="400" y1="400.0" y2="400.0" /><polyline class="axis" points="0,0 400,0" /><polyline class="axis" points="0,0 0,400" /><line class="grid depth0" x1="0" x2="400" y1="0" y2="400" /><g class="graph" id="graph_0"><path class="graph_segment" d="M 0.0 133.33333333333331 L 16.666666666666664 166.66666666666669 L 33.33333333333333 183.33333333333331 L 66.66666666666666 200.0 L 133.33333333333331 266.66666666666663 L 150.0 300.0 L 166.66666666666669 316.66666666666663 L 200.0 333.33333333333337 L 266.66666666666663 400.0" /><path class="graph_segment" d="M 266.66666666666663 0.0 L 283.33333333333337 33.33333333333333 L 300.0 50.0 L 333.33333333333337 66.66666666666666 L 400.0 133.33333333333331" /></g></g></svg>