<?xml version="1.0" encoding="utf-8" ?>
<svg baseProfile="full" height="280" version="1.1" width="280" xmlns="http://www.w3.org/2000/svg" xmlns:ev="http://www.w3.org/2001/xml-events" xmlns:xlink="http://www.w3.org/1999/xlink"><defs><style type="text/css"><![CDATA[.debug { visibility: visible; }
.thread { visibility: hidden; }

circle { fill: #e8e8e8; stroke: black; }
.leaf { fill: white; }
/* .left { stroke: red; } */
.thread {stroke: #888; stroke-dasharray: 5,5;}

rect.debug { fill: red; opacity: 0.2 }

line, polyline { stroke: black; fill: none; }

.grid line:not(.axis) { stroke-width: 0.5px; stroke: #888; stroke-dasharray: 5,5; }
.grid line.major {stroke-width: 1px;}

.axis, .arrow { 	marker-end: url(#arrowhead); }

.graph path { stroke: black; marker-start: url(#continuity); marker-mid: url(#crosshair); marker-end: url(#discontinuity); }
.graph .axis { marker-mid: url(#tickmark); }
#discontinuity circle { fill: white; }
#continuity circle { fill: black; }
#crosshair path { stroke: #666; }

text { text-anchor: middle; font-family: sans-serif; }
text.above { baseline-shift: 1ex; }
text.centered { baseline-shift: -0.5ex; }
text.below{ baseline-shift: -3ex; }
text.left { text-anchor: end; }
text.right { text-anchor: start; }]]></style><marker id="arrowhead" markerHeight="10" markerUnits="strokeWidth" markerWidth="10" orient="auto" refX="9" refY="5"><path d="M 0 0 L 10 5 L 0 10 z" /></marker><marker id="tickmark" markerHeight="10" markerUnits="strokeWidth" markerWidth="2" orient="auto" refX="1" refY="5"><line stroke-width="2" x1="0" x2="0" y1="0" y2="10" /></marker><marker id="discontinuity" markerHeight="8" markerUnits="strokeWidth" markerWidth="8" orient="auto" refX="4" refY="4"><circle cx="4" cy="4" r="3.5" /></marker><marker id="continuity" markerHeight="8" markerUnits="strokeWidth" markerWidth="8" orient="auto" refX="4" refY="4"><circle cx="4" cy="4" r="3.5" /></marker><marker id="crosshair" markerHeight="10" markerUnits="strokeWidth" markerWidth="10" refX="5" refY="5"><path d="M 0 5 L 10 5 M 5 0 L 5 10" /></marker></defs><g id="canvas" transform="translate(40,40)"><g class="grid debug"><line class="axis" x1="0" x2="200" y1="0" y2="0" /><line class="axis" x1="0" x2="0" y1="0" y2="200" /><line x1="0" x2="200" y1="40" y2="40" /><line x1="40" x2="40" y1="0" y2="200" /><line x1="0" x2="200" y1="80" y2="80" /><line x1="80" x2="80" y1="0" y2="200" /><line x1="0" x2="200" y1="120" y2="120" /><line x1="120" x2="120" y1="0" y2="200" /><line x1="0" x2="200" y1="160" y2="160" /><line x1="160" x2="160" y1="0" y2="200" /><line class="major" x1="0" x2="200" y1="200" y2="200" /><line class="major" x1="200" x2="200" y1="0" y2="200" /></g><g><rect class="debug" height="80" width="80" x="0" y="0" /><circle cx="0" cy="0" r="18.0" /><circle cx="0" cy="40" r="18.0" /><circle cx="40" cy="0" r="18.0" /><circle cx="40" cy="40" r="18.0" /></g><g transform="translate(20.0,20.0) translate(120,0)"><rect class="debug" height="80" width="80" x="-20.0" y="-20.0" /><circle cx="0" cy="0" r="18.0" /><circle cx="0" cy="40" r="18.0" /><circle cx="40" cy="0" r="18.0" /><circle cx="40" cy="40" r="18.0" /></g></g></svg>