<?xml version="1.0" encoding="utf-8" ?>
<svg baseProfile="full" height="360" version="1.1" width="760" xmlns="http://www.w3.org/2000/svg" xmlns:ev="http://www.w3.org/2001/xml-events" xmlns:xlink="http://www.w3.org/1999/xlink"><defs><style type="text/css"><![CDATA[.debug { visibility: hidden; }
rect.debug { fill: red; opacity: 0.2 }

/* Generic Styles */
line, polyline { stroke: black; fill: none; }

/* Markers Definitions */
#arrowhead polygon { } 
#discontinuity circle { fill: white; }
#continuity circle { fill: black; }
#crosshair path { stroke: #444; }

/* Text */
/* Due to a bug in webkit, when SVGs are used in an <img> tag, all text elements should have an explicit size set. See https://bugs.webkit.org/show_bug.cgi?id=68090 . */
text { font-size: 14px; text-anchor: middle; font-family: sans-serif; }
text.above { baseline-shift: 1ex; }
text.centered { baseline-shift: -0.5ex; }
text.below { baseline-shift: -3ex; }
text.left { text-anchor: end; }
text.right { text-anchor: start; }

/* Fractions */
.fraction text { font-size: 12px; }
text.numerator    { text-anchor: end;  }
text.denominator { text-anchor: start;}

/* Binary Trees */
circle { fill: #e8e8e8; stroke: black; }
.leaf { fill: white; }
.thread {stroke: #888; stroke-dasharray: 5,5;}

/* Arrows */
.arrow { 	marker-end: url(#arrowhead); }

/* Grids and Graphs */
.axis { 	marker-end: url(#arrowhead); }
.grid line:not(.axis) { stroke-width: 0.5px; stroke: #888; stroke-dasharray: 5,5; }
.grid line.major {stroke-width: 1px;}
.graph .plot { marker-start: url(#continuity); marker-mid: url(#crosshair); marker-end: url(#discontinuity); }
.graph .axis { marker-mid: url(#tickmark); }
]]></style><marker id="arrowhead" markerHeight="10" markerUnits="strokeWidth" markerWidth="10" orient="auto" refX="9" refY="5"><polygon points="0,0 10,5 0,10" /></marker><marker id="tickmark" markerHeight="10" markerUnits="strokeWidth" markerWidth="2" orient="auto" refX="1" refY="5"><line stroke-width="2" x1="0" x2="0" y1="0" y2="10" /></marker><marker id="discontinuity" markerHeight="8" markerUnits="strokeWidth" markerWidth="8" orient="auto" refX="4" refY="4"><circle cx="4" cy="4" r="3.5" /></marker><marker id="continuity" markerHeight="8" markerUnits="strokeWidth" markerWidth="8" orient="auto" refX="4" refY="4"><circle cx="4" cy="4" r="3.5" /></marker><marker id="crosshair" markerHeight="10" markerUnits="strokeWidth" markerWidth="10" refX="5" refY="5"><path d="M 0 5 L 10 5 M 5 0 L 5 10" /></marker></defs><g id="canvas" transform="translate(40,40)"><g transform="translate(20.0,20.0)"><rect class="debug" height="280" width="680" x="-20.0" y="-20.0" /><line x1="480" x2="360" y1="0" y2="40" /><line x1="360" x2="320" y1="40" y2="80" /><line x1="320" x2="160" y1="80" y2="120" /><line x1="160" x2="40" y1="120" y2="160" /><line x1="40" x2="0" y1="160" y2="200" /><line class="thread debug" x1="0" x2="40" y1="200" y2="240" /><line x1="40" x2="80" y1="160" y2="200" /><line x1="80" x2="40" y1="200" y2="240" /><line x1="80" x2="120" y1="200" y2="240" /><line x1="160" x2="280" y1="120" y2="160" /><line x1="280" x2="200" y1="160" y2="200" /><line x1="200" x2="160" y1="200" y2="240" /><line x1="200" x2="240" y1="200" y2="240" /><line x1="280" x2="360" y1="160" y2="200" /><line x1="360" x2="320" y1="200" y2="240" /><line x1="360" x2="400" y1="200" y2="240" /><line x1="320" x2="480" y1="80" y2="120" /><line x1="480" x2="440" y1="120" y2="160" /><line x1="440" x2="400" y1="160" y2="200" /><line x1="440" x2="480" y1="160" y2="200" /><line class="thread debug" x1="480" x2="400" y1="200" y2="240" /><line x1="480" x2="520" y1="120" y2="160" /><line class="thread debug" x1="520" x2="480" y1="160" y2="200" /><line x1="360" x2="400" y1="40" y2="80" /><line class="thread debug" x1="400" x2="480" y1="80" y2="120" /><line x1="480" x2="600" y1="0" y2="40" /><line x1="600" x2="560" y1="40" y2="80" /><line x1="560" x2="520" y1="80" y2="120" /><line x1="560" x2="600" y1="80" y2="120" /><line class="thread debug" x1="600" x2="520" y1="120" y2="160" /><line x1="600" x2="640" y1="40" y2="80" /><line class="thread debug" x1="640" x2="600" y1="80" y2="120" /><circle cx="480" cy="0" r="18.0" /><circle class="left" cx="360" cy="40" r="18.0" /><circle class="left" cx="320" cy="80" r="18.0" /><circle class="left" cx="160" cy="120" r="18.0" /><circle class="left" cx="40" cy="160" r="18.0" /><circle class="leaf left" cx="0" cy="200" r="18.0" /><circle cx="80" cy="200" r="18.0" /><circle class="leaf left" cx="40" cy="240" r="18.0" /><circle class="leaf" cx="120" cy="240" r="18.0" /><circle cx="280" cy="160" r="18.0" /><circle class="left" cx="200" cy="200" r="18.0" /><circle class="leaf left" cx="160" cy="240" r="18.0" /><circle class="leaf" cx="240" cy="240" r="18.0" /><circle cx="360" cy="200" r="18.0" /><circle class="leaf left" cx="320" cy="240" r="18.0" /><circle class="leaf" cx="400" cy="240" r="18.0" /><circle cx="480" cy="120" r="18.0" /><circle class="left" cx="440" cy="160" r="18.0" /><circle class="leaf left" cx="400" cy="200" r="18.0" /><circle class="leaf" cx="480" cy="200" r="18.0" /><circle class="leaf" cx="520" cy="160" r="18.0" /><circle class="leaf" cx="400" cy="80" r="18.0" /><circle cx="600" cy="40" r="18.0" /><circle class="left" cx="560" cy="80" r="18.0" /><circle class="leaf left" cx="520" cy="120" r="18.0" /><circle class="leaf" cx="600" cy="120" r="18.0" /><circle class="leaf" cx="640" cy="80" r="18.0" /></g></g></svg>