<?xml version="1.0" encoding="utf-8" ?>
<svg baseProfile="full" height="100%" version="1.1" viewBox="0,0,480,480" width="100%" xmlns="http://www.w3.org/2000/svg" xmlns:ev="http://www.w3.org/2001/xml-events" xmlns:xlink="http://www.w3.org/1999/xlink"><defs><style type="text/css"><![CDATA[.axis {
	stroke: black;
	stroke-width: 1px;
	marker-mid: url(#tickmark);
	marker-end: url(#arrowhead);
}

.depth0 { stroke-width: 0.9px; stroke: #808080; }
.depth1 { stroke-width: 0.8px; stroke: #A6A6A6; }
.depth2 { stroke-width: 0.7px; stroke: #BFBFBF; }
.depth3 { stroke-width: 0.6px; stroke: #E6E6E6; }

#arrowhead {
	stroke: black;
	fill: none;
}

#tickmark {
	stroke: black;
	stroke-width: 2px;
}

.graph {
	fill: none;
	stroke: black;
	stroke-width: 1.5px;
	marker-start: url(#continuity);
	marker-end: url(#discontinuity);
}

#discontinuity {
	fill: white;
	stroke: black;
}
]]></style><marker id="arrowhead" markerHeight="8" markerUnits="strokeWidth" markerWidth="4" orient="auto" refX="4" refY="4"><polyline points="0,8 4,4 0,0" /></marker><marker id="tickmark" markerHeight="10" markerUnits="strokeWidth" markerWidth="1" orient="auto" refX="0.5" refY="5"><line x1="0" x2="0" y1="0" y2="10" /></marker></defs><g id="canvas" transform="translate(40,40) scale(1,-1) translate(0,-400)"><line class="grid depth1" x1="25.0" x2="25.0" y1="0" y2="400" /><line class="grid depth1" x1="0" x2="400" y1="25.0" y2="25.0" /><line class="grid depth1" x1="50.0" x2="50.0" y1="0" y2="400" /><line class="grid depth1" x1="0" x2="400" y1="50.0" y2="50.0" /><line class="grid depth1" x1="75.0" x2="75.0" y1="0" y2="400" /><line class="grid depth1" x1="0" x2="400" y1="75.0" y2="75.0" /><line class="grid depth1" x1="125.0" x2="125.0" y1="0" y2="400" /><line class="grid depth1" x1="0" x2="400" y1="125.0" y2="125.0" /><line class="grid depth1" x1="150.0" x2="150.0" y1="0" y2="400" /><line class="grid depth1" x1="0" x2="400" y1="150.0" y2="150.0" /><line class="grid depth1" x1="175.0" x2="175.0" y1="0" y2="400" /><line class="grid depth1" x1="0" x2="400" y1="175.0" y2="175.0" /><line class="grid depth1" x1="225.0" x2="225.0" y1="0" y2="400" /><line class="grid depth1" x1="0" x2="400" y1="225.0" y2="225.0" /><line class="grid depth1" x1="250.0" x2="250.0" y1="0" y2="400" /><line class="grid depth1" x1="0" x2="400" y1="250.0" y2="250.0" /><line class="grid depth1" x1="275.0" x2="275.0" y1="0" y2="400" /><line class="grid depth1" x1="0" x2="400" y1="275.0" y2="275.0" /><line class="grid depth1" x1="325.0" x2="325.0" y1="0" y2="400" /><line class="grid depth1" x1="0" x2="400" y1="325.0" y2="325.0" /><line class="grid depth1" x1="350.0" x2="350.0" y1="0" y2="400" /><line class="grid depth1" x1="0" x2="400" y1="350.0" y2="350.0" /><line class="grid depth1" x1="375.0" x2="375.0" y1="0" y2="400" /><line class="grid depth1" x1="0" x2="400" y1="375.0" y2="375.0" /><line class="grid depth0" x1="100.0" x2="100.0" y1="0" y2="400" /><line class="grid depth0" x1="0" x2="400" y1="100.0" y2="100.0" /><line class="grid depth0" x1="200.0" x2="200.0" y1="0" y2="400" /><line class="grid depth0" x1="0" x2="400" y1="200.0" y2="200.0" /><line class="grid depth0" x1="300.0" x2="300.0" y1="0" y2="400" /><line class="grid depth0" x1="0" x2="400" y1="300.0" y2="300.0" /><line class="grid depth0" x1="400.0" x2="400.0" y1="0" y2="400" /><line class="grid depth0" x1="0" x2="400" y1="400.0" y2="400.0" /><polyline class="axis" points="0,0 100.0,0 125.0,0 150.0,0 175.0,0 200.0,0 225.0,0 250.0,0 275.0,0 281.25,0 282.8125,0 284.375,0 285.9375,0 287.5,0 293.75,0 300.0,0 325.0,0 326.5625,0 328.125,0 329.6875,0 331.25,0 337.5,0 343.75,0 350.0,0 375.0,0 381.25,0 387.5,0 393.75,0 400.0,0" /><polyline class="axis" points="0,0 0,100.0 0,125.0 0,131.25 0,137.5 0,143.75 0,150.0 0,175.0 0,200.0 0,225.0 0,250.0 0,275.0 0,300.0 0,325.0 0,331.25 0,332.8125 0,334.375 0,335.9375 0,337.5 0,343.75 0,345.3125 0,346.875 0,348.4375 0,348.828125 0,349.21875 0,349.609375 0,350.0 0,375.0 0,400.0" /><path class="graph" d="M 0.0 275.0 L 100.0 300.0" /><path class="graph" d="M 100.0 343.75 L 125.0 345.3125" /><path class="graph" d="M 125.0 331.25 L 150.0 332.8125" /><path class="graph" d="M 150.0 200.0 L 175.0 225.0" /><path class="graph" d="M 175.0 349.21875 L 200.0 349.609375" /><path class="graph" d="M 200.0 250.0 L 225.0 275.0" /><path class="graph" d="M 225.0 335.9375 L 250.0 337.5" /><path class="graph" d="M 250.0 0.0 L 275.0 100.0" /><path class="graph" d="M 275.0 137.5 L 281.25 143.75" /><path class="graph" d="M 281.25 348.4375 L 282.8125 348.828125" /><path class="graph" d="M 282.8125 100.0 L 284.375 125.0" /><path class="graph" d="M 284.375 345.3125 L 285.9375 346.875" /><path class="graph" d="M 285.9375 349.609375 L 287.5 350.0" /><path class="graph" d="M 287.5 131.25 L 293.75 137.5" /><path class="graph" d="M 293.75 348.828125 L 300.0 349.21875" /><path class="graph" d="M 300.0 125.0 L 325.0 131.25" /><path class="graph" d="M 325.0 300.0 L 326.5625 325.0 L 328.125 331.25" /><path class="graph" d="M 328.125 337.5 L 329.6875 343.75" /><path class="graph" d="M 329.6875 350.0 L 331.25 375.0" /><path class="graph" d="M 331.25 334.375 L 337.5 335.9375" /><path class="graph" d="M 337.5 332.8125 L 343.75 334.375" /><path class="graph" d="M 343.75 143.75 L 350.0 150.0" /><path class="graph" d="M 350.0 346.875 L 375.0 348.4375" /><path class="graph" d="M 375.0 175.0 L 381.25 200.0" /><path class="graph" d="M 381.25 375.0 L 387.5 400.0" /><path class="graph" d="M 387.5 150.0 L 393.75 175.0" /><path class="graph" d="M 393.75 225.0 L 400.0 250.0" /></g></svg>